<?xml version="1.0" encoding="utf-8"?>
<!-- Generator: Adobe Illustrator 19.0.0, SVG Export Plug-In . SVG Version: 6.00 Build 0)  -->
<svg version="1.1" xmlns="http://www.w3.org/2000/svg" xmlns:xlink="http://www.w3.org/1999/xlink" x="0px" y="0px"
	 viewBox="28 1664.6 905 945" style="enable-background:new 28 1664.6 905 945;" xml:space="preserve">
<style type="text/css">
	.st0{fill:#00598E;}
	.st1{fill:#FFFFFF;}
	.st2{fill:#0073BA;}
	.st3{fill:#004975;}
	.st4{fill:#93C5E4;}
	.st5{fill:none;}
	.st6{fill:#28A9E0;}
	.st7{clip-path:url(#SVGID_2_);}
	.st8{clip-path:url(#SVGID_4_);}
	.st9{display:none;}
	.st10{display:inline;fill:#FFFFFF;stroke:#000000;stroke-width:11;}
	.st11{fill:#28A9E0;stroke:#FFFFFF;stroke-width:0.9113;}
	.st12{opacity:0.7;}
	.st13{stroke:#FFFFFF;stroke-width:2;stroke-miterlimit:10;}
	.st14{stroke:#FFFFFF;stroke-miterlimit:10;}
</style>
<g id="Layer_1">
	<g>
		<path class="st0" d="M717.2-110.2c-39.8-24.8-77.2-34.5-114.8-59.2c-23.2-15.8-55.5-53.2-82.5-85.5c-5.2,51.8-21,72.8-39,87.8
			c-38.2,30-62.2,39-95.2,57C357.9-95.9,207.2-5.9,207.2,187.6s162.8,336,343.5,336s337.5-131.2,337.5-330S741.2-95.2,717.2-110.2z"
			/>
		<path class="st1" d="M656.2,355.5c12,0,24.8,0.8,33.8,6.8s14.2,19.5,17.2,27s0,12-6,15c-5.2,3-6,1.5-11.2-8.2s-9.8-19.5-36-19.5
			s-34.5,9-47.2,19.5s-17.2,14.2-21.8,8.2s-3-12,5.2-19.5s21.8-19.5,34.5-24.8S644.2,355.5,656.2,355.5L656.2,355.5z"/>
		<path class="st1" d="M531.8,441c15,12,37.5,21.8,85.5,21.8S699,449.2,714,438c6.8-5.2,9.8-0.8,10.5,2.2s2.2,7.5-3,12.8
			c-3.8,3.8-38.2,27.8-78.8,31.5s-95.2,6-128.2-24c-5.2-5.2-3.8-12.8,0-15.8s6.8-5.2,11.2-5.2S529.5,439.5,531.8,441L531.8,441z"/>
		<path class="st2" d="M348,384c57-0.8,67.5-10.5,117.8-33C737.3,229.5,787.6,118.5,797.3,93s24-66.8,9-112.5
			c-2.9-8.8-5-15.9-6.5-21.6c-36.1-40.3-71.9-62.4-82.7-69.1c-39-24.8-77.3-34.5-114.8-59.2c-23.2-15-55.5-53.2-82.5-85.5
			c-5.2,51.8-20.2,73.5-39,87.8c-38.2,30-62.2,39-95.2,57C357.8-95.2,207-6,207,187.5c0,61.8,16.6,118.4,45.1,166.8l7.4-0.3
			C275.2,368.2,300,384.8,348,384z"/>
		<path class="st3" d="M717-110.2c-39-24.8-77.2-34.5-114.8-59.2c-23.2-15-55.5-53.2-82.5-85.5c-5.2,51.8-20.2,73.5-39,87.8
			c-38.2,30-62.2,39-95.2,57C357.8-95.2,207-6,207,187.5c0,61.8,16.6,118.4,45.1,166.8c60.7,103.2,175.4,169.2,298.4,169.2
			c180.8,0,337.5-131.2,337.5-330C888,84.4,843.7,8,799.7-41.1C763.6-81.5,727.8-103.5,717-110.2z M808.2-22.5
			c49.2,61.6,74.2,134.2,74.2,216c0,47.4-9,92.2-26.8,133.2c-16.9,38.8-41.2,73.2-72.3,102.3c-61.5,57.4-144.1,89-232.7,89
			c-43.8,0-86.8-8.4-127.8-24.9c-40.3-16.2-76.5-39.4-107.8-69c-66.1-62.4-102.4-146.4-102.4-236.6c0-80.3,26.1-151.7,77.5-212.2
			c39.3-46.2,81.7-71.8,98-80.6c8-4.3,15.4-8.2,22.6-11.9c22.6-11.6,44-22.6,73.4-45.6c15.7-11.9,32.4-30.8,39.5-78.7
			c24.8,29.5,53.5,62.6,75.5,76.8c19.5,12.9,39.5,21.9,58.8,30.6c18.3,8.2,37.2,16.8,55.9,28.7l0.7,0.4
			C769.4-70.9,798.6-34.4,808.2-22.5z"/>
		<path class="st4" d="M523.5-240c10.5,30.8,9,46.5,9,53.2s-3.8,24.8-15.8,33.8c-5.2,3.8-6.8,6.8-6.8,7.5c0,3,6.8,5.2,6.8,12
			c0,8.2-3.8,24.8-43.5,64.5s-96.8,75-141,96.8S267,48,261,37.5s2.2-33.8,30-64.5c27.8-30.7,115.5-75,115.5-75L516-178.5l6-29.2"/>
		<path class="st1" d="M523.5-240.8c-6.8,49.5-21.8,64.5-42,80.2c-33.8,25.5-66.8,41.2-74.2,45c-19.5,9.8-90,48.8-126.8,105
			c-11.2,17.2,0,24,2.2,25.5c2.2,1.5,27.8,4.5,82.5-28.5S444-66,474.8-98.2c16.5-17.2,18.8-27,18.8-31.5c0-5.2-3.8-7.5-9.8-9
			c-3-0.8-3.8-2.2,0-4.5S503.2-153,507-156s21.8-15,22.5-34.5S528.8-223.5,523.5-240.8L523.5-240.8z"/>
		<path class="st1" d="M354.8,304.5c0.8-58.5,55.5-113.2,124.5-114c87.8-0.8,148.5,87,192.8,86.2c37.5-0.8,109.5-74.2,144.8-74.2
			c37.5,0,48,39,48,62.2s-7.5,65.2-25.5,91.5s-29.2,36-50.2,34.5c-27-2.2-81-86.2-115.5-87.8c-43.5-1.5-138,90.8-212.2,90.8
			c-45,0-58.5-6.8-73.5-16.5C365.2,361.5,354,337.5,354.8,304.5L354.8,304.5z"/>
		<path class="st5" d="M806.2-19.5c15,45.8,0.8,87-9,112.5s-60,136.5-331.5,258c-50.2,22.5-60.8,32.2-117.8,33
			c-48,0.8-72.8-15.8-88.5-30l-7.4,0.3c60.7,103.2,175.4,169.2,298.4,169.2c180.8,0,337.5-131.2,337.5-330
			c0-109.1-44.3-185.5-88.3-234.6C801.2-35.4,803.4-28.3,806.2-19.5z"/>
	</g>
	<g>
		<path class="st0" d="M2029.9-125.7c-39.8-24.8-77.2-34.5-114.8-59.2c-23.2-15.8-55.5-53.2-82.5-85.5c-5.2,51.8-21,72.8-39,87.8
			c-38.2,30-62.2,39-95.2,57c-27.8,14.2-178.5,104.2-178.5,297.7s162.8,336,343.5,336s337.5-131.2,337.5-330
			S2053.9-110.7,2029.9-125.7z"/>
		<path class="st1" d="M1968.9,340c12,0,24.8,0.8,33.8,6.8s14.2,19.5,17.2,27s0,12-6,15c-5.2,3-6,1.5-11.2-8.2
			c-5.2-9.7-9.8-19.5-36-19.5c-26.2,0-34.5,9-47.2,19.5c-12.7,10.5-17.2,14.2-21.8,8.2s-3-12,5.2-19.5c8.2-7.5,21.8-19.5,34.5-24.8
			C1950.1,339.2,1956.9,340,1968.9,340L1968.9,340z"/>
		<path class="st1" d="M1844.5,425.5c15,12,37.5,21.8,85.5,21.8s81.7-13.6,96.7-24.8c6.8-5.2,9.8-0.8,10.5,2.2c0.7,3,2.2,7.5-3,12.8
			c-3.8,3.8-38.2,27.8-78.8,31.5s-95.2,6-128.2-24c-5.2-5.2-3.8-12.8,0-15.8c3.8-3,6.8-5.2,11.2-5.2S1842.2,424,1844.5,425.5
			L1844.5,425.5z"/>
		<path class="st2" d="M1660.7,368.5c57-0.8,67.5-10.5,117.8-33C2050,214,2100.3,103,2110,77.5s24-66.8,9-112.5
			c-2.9-8.8-5-15.9-6.5-21.6c-36.1-40.3-71.9-62.4-82.7-69.1c-39-24.8-77.3-34.5-114.8-59.2c-23.2-15-55.5-53.2-82.5-85.5
			c-5.2,51.8-20.2,73.5-39,87.8c-38.2,30-62.2,39-95.2,57c-27.8,14.9-178.6,104.1-178.6,297.6c0,61.8,16.6,118.4,45.1,166.8l7.4-0.3
			C1587.9,352.7,1612.7,369.3,1660.7,368.5z"/>
		<path class="st3" d="M2029.7-125.7c-39-24.8-77.2-34.5-114.8-59.2c-23.2-15-55.5-53.2-82.5-85.5c-5.2,51.8-20.2,73.5-39,87.8
			c-38.2,30-62.2,39-95.2,57c-27.7,14.9-178.5,104.1-178.5,297.6c0,61.8,16.6,118.4,45.1,166.8C1625.5,442,1740.2,508,1863.2,508
			c180.8,0,337.5-131.2,337.5-330c0-109.1-44.3-185.5-88.3-234.6C2076.3-97,2040.5-119,2029.7-125.7z M2120.9-38
			c49.2,61.6,74.2,134.2,74.2,216c0,47.4-9,92.2-26.8,133.2c-16.9,38.8-41.2,73.2-72.3,102.3c-61.5,57.4-144.1,89-232.7,89
			c-43.8,0-86.8-8.4-127.8-24.9c-40.3-16.2-76.5-39.4-107.8-69c-66.1-62.4-102.4-146.4-102.4-236.6c0-80.3,26.1-151.7,77.5-212.2
			c39.3-46.2,81.7-71.8,98-80.6c8-4.3,15.4-8.2,22.6-11.9c22.6-11.6,44-22.6,73.4-45.6c15.7-11.9,32.4-30.8,39.5-78.7
			c24.8,29.5,53.5,62.6,75.5,76.8c19.5,12.9,39.5,21.9,58.8,30.6c18.3,8.2,37.2,16.8,55.9,28.7l0.7,0.4
			C2082.1-86.4,2111.3-49.9,2120.9-38z"/>
		<path class="st4" d="M1836.2-255.5c10.5,30.8,9,46.5,9,53.2s-3.8,24.8-15.8,33.8c-5.2,3.8-6.8,6.8-6.8,7.5c0,3,6.8,5.2,6.8,12
			c0,8.2-3.8,24.8-43.5,64.5c-39.7,39.7-96.8,75-141,96.8s-65.2,20.2-71.2,9.7s2.2-33.8,30-64.5c27.8-30.7,115.5-75,115.5-75
			l109.5-76.5l6-29.2"/>
		<path class="st1" d="M1836.2-256.3c-6.8,49.5-21.8,64.5-42,80.2c-33.8,25.5-66.8,41.2-74.2,45c-19.5,9.8-90,48.8-126.8,105
			c-11.2,17.2,0,24,2.2,25.5c2.2,1.5,27.8,4.5,82.5-28.5c54.7-33,78.8-52.4,109.6-84.6c16.5-17.2,18.8-27,18.8-31.5
			c0-5.2-3.8-7.5-9.8-9c-3-0.8-3.8-2.2,0-4.5c3.8-2.3,19.4-9.8,23.2-12.8c3.8-3,21.8-15,22.5-34.5
			C1842.9-225.5,1841.5-239,1836.2-256.3L1836.2-256.3z"/>
		<path class="st1" d="M1667.5,289c0.8-58.5,55.5-113.2,124.5-114c87.8-0.8,148.5,87,192.8,86.2c37.5-0.8,109.5-74.2,144.8-74.2
			c37.5,0,48,39,48,62.2s-7.5,65.2-25.5,91.5s-29.2,36-50.2,34.5c-27-2.2-81-86.2-115.5-87.8c-43.5-1.5-138,90.8-212.2,90.8
			c-45,0-58.5-6.8-73.5-16.5C1677.9,346,1666.7,322,1667.5,289L1667.5,289z"/>
		<path class="st5" d="M2118.9-35c15,45.8,0.8,87-9,112.5c-9.8,25.5-60,136.5-331.5,258c-50.2,22.5-60.8,32.2-117.8,33
			c-48,0.8-72.8-15.8-88.5-30l-7.4,0.3C1625.4,442,1740.1,508,1863.1,508c180.8,0,337.5-131.2,337.5-330
			c0-109.1-44.3-185.5-88.3-234.6C2113.9-50.9,2116.1-43.8,2118.9-35z"/>
	</g>
	<g>
		<path class="st0" d="M2029.9,1935.9c-39.8-24.8-77.2-34.5-114.8-59.2c-23.2-15.8-55.5-53.2-82.5-85.5c-5.2,51.8-21,72.8-39,87.8
			c-38.2,30-62.2,39-95.2,57c-27.8,14.2-178.5,104.2-178.5,297.7s162.8,336,343.5,336s337.5-131.2,337.5-330
			S2053.9,1950.9,2029.9,1935.9z"/>
		<path class="st1" d="M1968.9,2401.6c12,0,24.8,0.8,33.8,6.8s14.2,19.5,17.2,27s0,12-6,15c-5.2,3-6,1.5-11.2-8.2
			c-5.2-9.7-9.8-19.5-36-19.5c-26.2,0-34.5,9-47.2,19.5c-12.7,10.5-17.2,14.2-21.8,8.2s-3-12,5.2-19.5c8.2-7.5,21.8-19.5,34.5-24.8
			C1950.1,2400.8,1956.9,2401.6,1968.9,2401.6L1968.9,2401.6z"/>
		<path class="st1" d="M1844.5,2487.1c15,12,37.5,21.8,85.5,21.8s81.7-13.6,96.7-24.8c6.8-5.2,9.8-0.8,10.5,2.2
			c0.7,3,2.2,7.5-3,12.8c-3.8,3.8-38.2,27.8-78.8,31.5c-40.6,3.7-95.2,6-128.2-24c-5.2-5.2-3.8-12.8,0-15.8c3.8-3,6.8-5.2,11.2-5.2
			S1842.2,2485.6,1844.5,2487.1L1844.5,2487.1z"/>
		<path class="st2" d="M1660.7,2430.1c57-0.8,67.5-10.5,117.8-33c271.5-121.5,321.8-232.5,331.5-258s24-66.8,9-112.5
			c-2.9-8.8-5-15.9-6.5-21.6c-36.1-40.3-71.9-62.4-82.7-69.1c-39-24.8-77.3-34.5-114.8-59.2c-23.2-15-55.5-53.2-82.5-85.5
			c-5.2,51.8-20.2,73.5-39,87.8c-38.2,30-62.2,39-95.2,57c-27.8,14.9-178.6,104.1-178.6,297.6c0,61.8,16.6,118.4,45.1,166.8l7.4-0.3
			C1587.9,2414.3,1612.7,2430.9,1660.7,2430.1z"/>
		<path class="st3" d="M2029.7,1935.9c-39-24.8-77.2-34.5-114.8-59.2c-23.2-15-55.5-53.2-82.5-85.5c-5.2,51.8-20.2,73.5-39,87.8
			c-38.2,30-62.2,39-95.2,57c-27.7,14.9-178.5,104.1-178.5,297.6c0,61.8,16.6,118.4,45.1,166.8c60.7,103.2,175.4,169.2,298.4,169.2
			c180.8,0,337.5-131.2,337.5-330c0-109.1-44.3-185.5-88.3-234.6C2076.3,1964.6,2040.5,1942.6,2029.7,1935.9z M2120.9,2023.6
			c49.2,61.6,74.2,134.2,74.2,216c0,47.4-9,92.2-26.8,133.2c-16.9,38.8-41.2,73.2-72.3,102.3c-61.5,57.4-144.1,89-232.7,89
			c-43.8,0-86.8-8.4-127.8-24.9c-40.3-16.2-76.5-39.4-107.8-69c-66.1-62.4-102.4-146.4-102.4-236.6c0-80.3,26.1-151.7,77.5-212.2
			c39.3-46.2,81.7-71.8,98-80.6c8-4.3,15.4-8.2,22.6-11.9c22.6-11.6,44-22.6,73.4-45.6c15.7-11.9,32.4-30.8,39.5-78.7
			c24.8,29.5,53.5,62.6,75.5,76.8c19.5,12.9,39.5,21.9,58.8,30.6c18.3,8.2,37.2,16.8,55.9,28.7l0.7,0.4
			C2082.1,1975.2,2111.3,2011.7,2120.9,2023.6z"/>
		<path class="st4" d="M1836.2,1806.1c10.5,30.8,9,46.5,9,53.2c0,6.7-3.8,24.8-15.8,33.8c-5.2,3.8-6.8,6.8-6.8,7.5
			c0,3,6.8,5.2,6.8,12c0,8.2-3.8,24.8-43.5,64.5c-39.7,39.7-96.8,75-141,96.8c-44.2,21.8-65.2,20.2-71.2,9.7s2.2-33.8,30-64.5
			c27.8-30.7,115.5-75,115.5-75l109.5-76.5l6-29.2"/>
		<path class="st1" d="M1836.2,1805.3c-6.8,49.5-21.8,64.5-42,80.2c-33.8,25.5-66.8,41.2-74.2,45c-19.5,9.8-90,48.8-126.8,105
			c-11.2,17.2,0,24,2.2,25.5c2.2,1.5,27.8,4.5,82.5-28.5c54.7-33,78.8-52.4,109.6-84.6c16.5-17.2,18.8-27,18.8-31.5
			c0-5.2-3.8-7.5-9.8-9c-3-0.8-3.8-2.2,0-4.5c3.8-2.3,19.4-9.8,23.2-12.8c3.8-3,21.8-15,22.5-34.5
			C1842.9,1836.1,1841.5,1822.6,1836.2,1805.3L1836.2,1805.3z"/>
		<path class="st1" d="M1667.5,2350.6c0.8-58.5,55.5-113.2,124.5-114c87.8-0.8,148.5,87,192.8,86.2c37.5-0.8,109.5-74.2,144.8-74.2
			c37.5,0,48,39,48,62.2s-7.5,65.2-25.5,91.5s-29.2,36-50.2,34.5c-27-2.2-81-86.2-115.5-87.8c-43.5-1.5-138,90.8-212.2,90.8
			c-45,0-58.5-6.8-73.5-16.5C1677.9,2407.6,1666.7,2383.6,1667.5,2350.6L1667.5,2350.6z"/>
		<path class="st5" d="M2118.9,2026.6c15,45.8,0.8,87-9,112.5c-9.8,25.5-60,136.5-331.5,258c-50.2,22.5-60.8,32.2-117.8,33
			c-48,0.8-72.8-15.8-88.5-30l-7.4,0.3c60.7,103.2,175.4,169.2,298.4,169.2c180.8,0,337.5-131.2,337.5-330
			c0-109.1-44.3-185.5-88.3-234.6C2113.9,2010.7,2116.1,2017.8,2118.9,2026.6z"/>
	</g>
</g>
<g id="Calque_8">
	<path class="st6" d="M619.5,1905.3c-39.8-24.8-77.2-34.5-114.8-59.2c-23.2-15.8-55.5-53.2-82.5-85.5c-5.2,51.8-21,72.8-39,87.8
		c-38.2,30-62.2,39-95.2,57c-27.8,14.2-178.5,104.2-178.5,297.7s162.8,336,343.5,336s337.5-131.2,337.5-330
		S643.5,1920.3,619.5,1905.3z"/>
	<g>
		<defs>
			<path id="SVGID_1_" d="M619.5,1905.3c-39.8-24.8-77.2-34.5-114.8-59.2c-23.2-15.8-55.5-53.2-82.5-85.5c-5.2,51.8-21,72.8-39,87.8
				c-38.2,30-62.2,39-95.2,57c-27.8,14.2-178.5,104.2-178.5,297.7s162.8,336,343.5,336s337.5-131.2,337.5-330
				S643.5,1920.3,619.5,1905.3z"/>
		</defs>
		<clipPath id="SVGID_2_">
			<use xlink:href="#SVGID_1_"  style="overflow:visible;"/>
		</clipPath>
		<g class="st7">
			<path id="path4856_2_" class="st1" d="M521.8,2008.6l-8.7,8.3l-23.5,5.5l-4.6,7.9l-18-10.8l-20.3,16.9l9.5,10.5l-12.4,21.3
				l-0.7-0.3l-3.1,28.6l12.9-0.5l0.3,11.2l10.1,5l-7.8,9.6l-5.5,5l1.9,10.1l13.4,3l-11.8,4.8l1.3,12.8l8.9,9.5l4.8,30l-4.6,5.7l6,15
				l16.8,2.6l2.6,8.3l10.4-0.2l8-6.9l5.7,4.6l20.7,6.6l15.4-10.4l3.3-8.9l13.7-2.4l16.9,12.2l14.3-5l14.2,11.7l6-0.6l6.8,7l12.2-1.3
				l3.5-6.4l6.3,10.6l13.5,3.8l15.2-12l-1.2-11.2l11.5-5.6l7.7-0.8l11.3,16.3l20.8-0.5l9-14.1l8.7-25.2l14.1-6.7l6.5-12l8.6,6.8
				l16-5l0.2-47.8l3.2-19.5l-6.2-9.8l-9-2.4l-9.1-30.9l-5.9,8.2l-20-0.1l-0.8,11.7l-12.4,2.3l-2.5-14.4l-10.8-2.1l-6.5,9.1
				l-2.2-20.8l-11.5,10.6l-19-1.2l-5,13.2l-36.3,24.8l1.1,10.5l-8.3,0.9l-2-18.8l-22.9-8l0-19l-21.2-12.4l-1.8-17.7l-15-1.6
				L564,2021l-11.4,0.2l-0.2-11.6l-20.8,2.2l-2.1,10.7L521.8,2008.6L521.8,2008.6z"/>
			<path id="path4862_2_" class="st1" d="M469.1,2215.5l-16.5,10.1l-12.2,1.3l-11.7,11.7l1.6,7.6l9.7,19l6,15l27.1,1.5l14.1,9
				l4.5-6.7l9.7,10.4l-3.8,5.6l0.8,15.4l-7.7,0.8l-5,10.1l-12.2,1.3l-2.9,21l13.6,17.4l17.1,2.4l5.2-10l-1.8,11.6l15.2,4.8
				l20.8,16.7l7.4,10.8l-0.6,13.7l-0.7,13.9l13.5,8l5.6-8l-7.2-7.7l-2-18.7l12.8,1.7l2.9-12.9l3.9,7l14.7,10.1l5.2-11.2l-7.8-13.8
				l13.1,14.5l14.3-3.7l-3.8-7l13.8,1.8l11.6,11.4l-4.3,8.9l-13.9-2.8l-16.4-5.7l-7.2,11.4l12.9,2.9l10.8,13.5l55.8-11.1l14.8,1.6
				l-6.5,6.9l2,9.4l2.2,1.3l4.4-1.3l8.4-10.3l6.9,6.5l16.7-1.7l18.7-12.4l27.9-14.5l-2-29.3l5.8-4l-13.2-19.5l8.7-8.7l-2.2-5
				l-6.4-2.9l8.9-5.3l7.6-11.2l-1.9-10.2l-11.2,1.2l-3.7-9.9l6.7-11.1l-10.3-14.6l-13.6-6.5l-14.7,1.5l-5.3-1.1l-0.7-6.8l6.9-7.8
				l2.5-17.6l-3.7-10.9l-3,4.7l-20.8,0.5l-11.3-16.3l-7.7,0.8l-11.5,5.6l1.2,11.2l-15.2,12l-13.5-3.8l-6.3-10.6l-3.5,6.4l-12.2,1.3
				l-6.8-7l-6,0.6l-14.2-11.7l-14.3,5l-16.9-12.2l-13.7,2.4l-3.3,8.9l-15.4,10.4l-20.7-6.6l-5.7-4.6l-8,6.9l-10.4,0.2l-2.6-8.3
				l-16.8-2.6L469.1,2215.5L469.1,2215.5z"/>
			<path id="path4864_2_" class="st1" d="M369.8,2055.9l-10,13.7l-13-3.9l-22.8,4.6l-3.1,10.8l-13.2,4.6l-3.4-11.3l-23.5,5.7
				l0.8,7.3l-16.6,2.7l-7.9-4.4l-7.9,5l-0.9,12.7l-27.9,3.9l-12.8,19.2l13.5,8L206,2150l6.1,8.8l-1.8,23.3l16.9,0.4l5.7-7l3.6,3.8
				l38.9-9.3l24-21.4l-20.5,24.2l3.1,10.1l19.8-11.5l-2.6,15.1l23.1-1.4l-0.4,6.3l-25.1,1.6l-20.4-3.1l-25.2-9l-12.8,18.2l19.3,4.4
				l1.9,28.1l4.7-4.7l9.6-18.9l23.1,10.2l10.7,1.1l5.9,16.2l-5.1,12l-13.6,0.4l-12.5,1.3l-20.5,5.3l-35.3,5.7l-6.2,10.2l11,5.1
				l11.4-2.2l10.2,7.4l13.4-2.4l24.6,22.7l8,26.4l-5.8,15.4l22.3,1.9l23.9-3.7l4.2-9.9l-10.6-11.5l9.8,3.2l9.4-2l17.6,7.6l10.1-3.1
				l-1.9-17.8l6,17.4l15.8,20.4l29.4-1l0.5-6.3l8.2,9.6l18.2,1.3l13.5-1.4l1,1.1l2.9-21l12.2-1.3l5-10.1l7.7-0.8l-0.8-15.4l3.8-5.6
				l-9.7-10.4l-4.5,6.7l-14.1-9l-27.1-1.5l-6-15l-9.7-19l-1.6-7.6l11.7-11.7l12.2-1.3l16.5-10.1l-5-12.8l4.6-5.7l-4.8-30l-8.9-9.5
				l-1.3-12.8l11.8-4.8l-13.4-3l-1.9-10.1l5.5-5l7.8-9.6l-10.1-5l-0.3-11.2l-12.9,0.5l3.1-28.6l-18.2-8.2l-29,4l2.2,20.8l-8.3,0.9
				l-3-9.1l-12.3,3.3L369.8,2055.9L369.8,2055.9z"/>
			<path id="path4866_2_" class="st1" d="M776.5,2050.3l-8.8,12.4l9.1,30.9l9,2.4l6.2,9.8l-3.2,19.5l-0.2,47.8l-16,5l-8.6-6.8
				l-6.5,12l-14.1,6.7l-8.7,25.2l-5.9,9.4l3.7,10.9L730,2253l-6.9,7.8l0.7,6.8l5.3,1.1l14.7-1.5l13.6,6.5l10.3,14.6l-6.7,11.1
				l3.7,9.9l11.2-1.2l1.9,10.2l-7.6,11.2l-8.9,5.3l6.4,2.9l2.2,5l-8.7,8.7l13.2,19.5l19.8-13.4l64.1-9.9l3-11.9l9.4-11.4l22.5-5.6
				l-0.2-11.6l15.9,0.5l10.6,11.5l21.5,3l3.1-8.7l3.4-19.4l10-34.7l6.9-4.9l17.9,0.3l-2.9-28.2l-8.1-6.6l-3.2-30.1l-4.2-10
				l-1.7-16.7l9.4-11.6l-2.2-20.8l-5.6-3.6l-2-29.3l-8.8-3.3l-12.5,1.3l-11.4-7.2l-9.9,14.7l-9.2,2.1l-7.1,12.2l-8.5-1.1l-19.5-13.8
				l-8.2-19.2l-4.5-12.8l-51.1,5.3l-20-9.5l10.8-18L776.5,2050.3L776.5,2050.3z"/>
			<path id="path4868_2_" class="st1" d="M893,2307.2l0.2,11.6l-22.5,5.6l-9.4,11.4l-3,11.9l-64.1,9.9l-25.6,17.3l2,29.3l-27.9,14.5
				l-18.7,12.4l-16.7,1.7l-6.9-6.5l-8.4,10.3l-4.4,1.3l5.7,3.1l-18,19.7l4.6,3.7l5,7.9l-9,15.8l12.1,5l20.3,2.1l1.1-8.5l13,13.5
				l18.8-2l12-16.1l17.7-1.8l-17.7,11.3l2.1,10.4l5.1,8.9l-10.3,12.7l-12.5,1.3l3.8,15.4l22.4-6.6l29.8,22.1l-1.2,1.8l21,10.8
				l5.4,9.9l18.8,5.9l14,0.2l7.7,15.7l22,2.9l14.8,1.2l6.9-9.5l-9-10.3l-5.9-23.8l6-8.4l9.5-1l5.3,9l-0.9,17.4l6.4,3.7l15-6.8
				l3.4-17.7l-7.6-6.3l17.2-1.8l4.8-11.8l6.1,0.2l15.2,11.5l10.1,0.3l-0.8-10.9l-9.8-10.3l-7.7,0.8l-2.6,1.1l-5.4-2l3.9-4.8
				l-0.8-7.8l8.4-3.4l3.9-12.5l-4.8-3.9l-2.4-14.6l-11.2,1.2l-12.6-12.7l-1.1-10.2l11.3-7.4l21.1-6.4l33.6-2.7l9.6-8.1l-5.7-21.1
				l-17-12.9l-18.6,4.5l-5.6-3.8l-2.4-15.2l12.4-13.6l-11.7-11.7l-8.7-17.4l-11.9-5.7l-1.3-12l-1.6-3.7l-20-2.8l-10.6-11.5
				L893,2307.2L893,2307.2z"/>
			<path id="path3672_2_" sodipodi:nodetypes="cccccccccccccccccccc" class="st1" d="M441.3,2069l3.3,1.3l188.7,55.3l124.1-33.5
				l9.4-24.3l5.2-6.6l28.4,31.3l134.9,219.1l3.9,8.1l-0.4,8.4l-237.4,123.4l-5.5-13l-3.1-0.1l-5.5-3l7-18.3l-156.8-87.3l-61.9,19.9
				l-8.3-6.3l-105.4-191.7L441.3,2069z"/>
		</g>
	</g>
	<g>
		<path class="st6" d="M434,1805.2c21.4,24.3,42.2,45.7,59.4,57.4l0.1,0.1l0.1,0.1c20.7,13.6,41.2,22.9,61.1,31.9
			c18.5,8.4,36,16.3,54.1,27.6l0.7,0.4c13,8.1,52.7,32.9,89.9,79.4c21,26.3,37.7,55.2,49.4,85.9c14.4,37.5,21.6,78.3,21.6,121.1
			c0,45.5-8.6,88.3-25.7,127.4c-16.1,37-39.3,69.8-69,97.5c-29,27-63,48.2-101.1,62.8c-38.5,14.8-79.5,22.3-121.8,22.3
			c-42,0-83.2-8-122.4-23.8c-38.6-15.5-73.4-37.8-103.3-66.1c-63-59.6-97.7-139.8-97.7-226c0-41.9,7.6-81.8,22.5-118.6
			c12.3-30.3,29.6-58.7,51.6-84.5c42.2-49.7,88.4-74.1,93.5-76.7l0.2-0.1l0.2-0.1c7.8-4.2,15.1-8,22.3-11.7
			c23.3-11.9,45.2-23.2,75.7-47.1l0.2-0.2l0.2-0.2C410,1852.1,424.6,1836,434,1805.2 M422.2,1760.6c-5.2,51.8-21,72.8-39,87.8
			c-38.2,30-62.2,39-95.2,57c-27.8,14.2-178.5,104.2-178.5,297.7s162.8,336,343.5,336s337.5-131.2,337.5-330s-147-288.8-171-303.8
			c-39.8-24.8-77.2-34.5-114.8-59.2C481.5,1830.3,449.2,1792.9,422.2,1760.6L422.2,1760.6z"/>
	</g>
</g>
<g id="Calque_7">
	<g>
		<defs>
			<path id="SVGID_3_" d="M663.6,875.4c-39.8-24.8-77.2-34.5-114.8-59.2c-23.2-15.8-55.5-53.2-82.5-85.5c-5.2,51.8-21,72.8-39,87.8
				c-38.2,30-62.2,39-95.2,57c-27.8,14.2-178.5,104.2-178.5,297.7s162.8,336,343.5,336s337.5-131.2,337.5-330
				S687.6,890.4,663.6,875.4z"/>
		</defs>
		<clipPath id="SVGID_4_">
			<use xlink:href="#SVGID_3_"  style="overflow:visible;"/>
		</clipPath>
		<g class="st8">
			<g>
				<path class="st1" d="M312.2,699.4c65.4,45.6,139.8,76,220.4,76.1c80.5,0.1,155.2-30.5,220.4-76.1
					c122,205.3,244.1,410.5,366.1,615.8c-172,122.6-373.4,202.4-586.5,202.4c-213.2,0-414.5-79.9-586.5-202.4
					C68.1,1110,190.1,904.7,312.2,699.4z"/>
				<path d="M507.6,774.6c90.2,5,171.9-23.8,245.4-75.1c13.6,22.8,27.1,45.6,40.7,68.4c-86.7,60.8-184.2,95.3-290.7,89
					C504.5,829.4,506,802,507.6,774.6z"/>
				<path d="M498.3,939.2c123,7.5,236.1-32.5,336-102.9c13.6,22.8,27.1,45.6,40.7,68.4c-112.9,79.7-242.2,125.5-381.3,116.7
					C495.3,994,496.8,966.6,498.3,939.2z"/>
				<path d="M149.4,973.1c112.8,79.8,243.6,132.2,383.1,132.2c139.5,0,270.4-52.4,383.1-132.2c13.6,22.8,27.1,45.6,40.7,68.4
					c-124.6,88.4-269.6,146.3-423.8,146.3c-154.3,0-299.2-57.9-423.8-146.3C122.3,1018.7,135.9,995.9,149.4,973.1z"/>
				<path d="M68.1,1110c136.5,97,295.5,160.2,464.5,160.3c168.9,0.1,328.1-63.4,464.5-160.3c13.6,22.8,27.1,45.6,40.7,68.4
					c-148.3,105.4-321.5,174.5-505.2,174.4c-183.8-0.1-356.8-68.9-505.2-174.4C41,1155.6,54.5,1132.8,68.1,1110z"/>
				<path d="M-13.3,1246.8c160.2,114,347.4,188.4,545.9,188.4c198.5,0,385.7-74.4,545.9-188.4c13.6,22.8,27.1,45.6,40.7,68.4
					c-172,122.6-373.4,202.4-586.5,202.4c-213.2,0-414.5-79.9-586.5-202.4C-40.4,1292.4-26.8,1269.6-13.3,1246.8z"/>
				<g>
					<g id="ermine_33_">
						<g transform="rotate(-90 300,167.5)">
							<path id="s_99_" d="M319.4,747.5c-3.2,1.4-4.8,2.1-8,3.4c-1.8-4.6-2.7-6.9-4.3-11.5c4.5-0.4,6.7-0.7,11-1.3
								C318.6,741.9,318.9,743.8,319.4,747.5z"/>
						</g>
						<path id="s_98_" d="M319.4,747.5c0.7-4.6,1.1-6.9,1.9-11.6c4.5-5.6,6.8-8.4,11.2-14.1c-2.1,7.2-3.1,10.7-5.2,18
							C324.2,742.9,322.6,744.4,319.4,747.5z"/>
						<g transform="rotate(90 300,167.5)">
							<path id="s_97_" d="M319.4,747.5c3.2-1.4,4.7-2.1,7.8-3.6c1.8,4.5,2.7,6.7,4.6,11.1c-4.3,0.8-6.5,1.1-11,1.8
								C320.3,753.1,320,751.3,319.4,747.5z"/>
						</g>
						<path d="M319.4,747.5c-7.3,26.7-13.8,53.5-19.7,80.6c-3.3-6.9-4.8-10.4-7.9-17.3c-4,4.3-6,6.4-10.1,10.6
							c1.2-6.1,1.8-9.1,3-15.1c-6.9,0.7-10.4,0.9-17.6,1.3C285.3,788.1,302.6,768.1,319.4,747.5z"/>
					</g>
					<g>
						<g id="ermine_32_">
							<g transform="rotate(-90 300,167.5)">
								<path id="s_96_" d="M371.5,776c-2.9,1.9-4.3,2.8-7.3,4.6c-2.2-4.3-3.3-6.4-5.3-10.7c4.2-1.1,6.3-1.7,10.4-3
									C370.2,770.6,370.6,772.4,371.5,776z"/>
							</g>
							<path id="s_95_" d="M371.5,776c0.2-4.7,0.3-7,0.6-11.7c3.8-6.3,5.6-9.4,9.3-15.7c-1.3,7.4-1.9,11.1-3.1,18.6
								C375.6,770.7,374.3,772.5,371.5,776z"/>
							<g transform="rotate(90 300,167.5)">
								<path id="s_94_" d="M371.5,776c2.9-1.9,4.3-2.8,7.1-4.7c2.2,4.2,3.3,6.2,5.5,10.4c-4.1,1.4-6.1,2.1-10.3,3.4
									C372.9,781.4,372.4,779.6,371.5,776z"/>
							</g>
							<path d="M371.5,776c-4.2,27.5-7.7,55.1-10.5,82.8c-3.8-6.4-5.7-9.6-9.3-16c-3.4,4.8-5.1,7.3-8.6,12.1
								c0.5-6.2,0.8-9.3,1.3-15.4c-6.6,1.7-9.9,2.5-16.7,3.9C343,821.3,357.6,798.9,371.5,776z"/>
						</g>
						<g>
							<g id="ermine_31_">
								<g transform="rotate(-90 300,167.5)">
									<path id="s_93_" d="M424.6,796.3c-2.6,2.3-3.9,3.4-6.5,5.7c-2.6-3.9-3.8-5.9-6.3-9.8c3.9-1.7,5.9-2.7,9.7-4.5
										C422.8,791.2,423.4,792.9,424.6,796.3z"/>
								</g>
								<path id="s_92_" d="M424.6,796.3c-0.3-4.7-0.4-7-0.7-11.7c3-6.8,4.4-10.2,7.3-17c-0.4,7.5-0.6,11.3-1,18.9
									C428,790.5,426.9,792.4,424.6,796.3z"/>
								<g transform="rotate(90 300,167.5)">
									<path id="s_91_" d="M424.6,796.3c2.6-2.3,3.9-3.4,6.4-5.8c2.5,3.8,3.8,5.7,6.5,9.4c-3.8,2-5.7,3-9.6,5
										C426.6,801.5,425.9,799.8,424.6,796.3z"/>
								</g>
								<path d="M424.6,796.3c-1.1,27.9-1.6,55.8-1.3,83.7c-4.4-5.7-6.6-8.6-10.8-14.4c-2.8,5.3-4.2,8-7,13.2
									c-0.2-6.2-0.3-9.3-0.4-15.5c-6.2,2.7-9.3,4-15.7,6.4C402,845.6,413.6,821.2,424.6,796.3z"/>
							</g>
							<g>
								<g id="ermine_30_">
									<g transform="rotate(-90 300,167.5)">
										<path id="s_90_" d="M478.4,808.6c-2.3,2.7-3.4,4-5.8,6.6c-2.9-3.5-4.4-5.2-7.2-8.8c3.6-2.3,5.4-3.5,9-5.9
											C476,803.7,476.8,805.3,478.4,808.6z"/>
									</g>
									<path id="s_89_" d="M478.4,808.6c-0.8-4.6-1.2-6.9-1.9-11.5c2.1-7.1,3.2-10.7,5.2-17.9c0.4,7.5,0.6,11.3,1.1,18.9
										C481.1,802.2,480.2,804.3,478.4,808.6z"/>
									<g transform="rotate(90 300,167.5)">
										<path id="s_88_" d="M478.4,808.6c2.3-2.7,3.4-4,5.6-6.7c2.9,3.4,4.4,5.1,7.4,8.4c-3.5,2.6-5.3,3.9-8.9,6.4
											C480.9,813.4,480.1,811.8,478.4,808.6z"/>
									</g>
									<path d="M478.4,808.6c1.9,27.8,4.6,55.5,7.9,83.2c-4.9-5-7.4-7.6-12.1-12.7c-2.1,5.7-3.2,8.5-5.4,14.2
										c-0.9-6.1-1.3-9.2-2.1-15.3c-5.7,3.6-8.6,5.3-14.6,8.7C461.7,860.8,470.4,834.8,478.4,808.6z"/>
								</g>
								<g>
									<g id="ermine_29_">
										<g transform="rotate(-90 300,167.5)">
											<path id="s_87_" d="M306.2,853.4c-3.4,1.4-5.1,2.1-8.6,3.5c-2.6-4.8-3.9-7.2-6.5-12c5-0.4,7.5-0.7,12.4-1.2
												C304.6,847.5,305.1,849.5,306.2,853.4z"/>
										</g>
										<path id="s_86_" d="M306.2,853.4c0.2-4.8,0.3-7.2,0.6-12c4.4-5.8,6.6-8.7,10.9-14.6c-1.4,7.4-2.1,11.2-3.5,18.7
											C311.1,848.6,309.5,850.2,306.2,853.4z"/>
										<g transform="rotate(90 300,167.5)">
											<path id="s_85_" d="M306.2,853.4c3.4-1.4,5.1-2.2,8.5-3.6c2.6,4.7,4,7,6.7,11.6c-4.9,0.8-7.3,1.1-12.3,1.8
												C307.9,859.2,307.4,857.3,306.2,853.4z"/>
										</g>
										<path d="M306.2,853.4c-4.8,27.7-8.8,55.5-12.1,83.4c-4.5-7.1-6.7-10.7-10.9-17.9c-4,4.4-6,6.6-10,11
											c0.6-6.3,0.9-9.4,1.5-15.6c-7.7,0.7-11.6,0.9-19.4,1.3C272.9,895.4,289.9,874.7,306.2,853.4z"/>
									</g>
									<g id="ermine_28_">
										<g transform="rotate(-90 300,167.5)">
											<path id="s_84_" d="M369.9,882.9c-3.1,1.9-4.7,2.9-7.9,4.8c-3-4.3-4.5-6.5-7.5-10.9c4.7-1.2,7.1-1.8,11.7-3.1
												C367.7,877.4,368.4,879.2,369.9,882.9z"/>
										</g>
										<path id="s_83_" d="M369.9,882.9c-0.3-4.8-0.4-7.2-0.7-12c3.6-6.4,5.4-9.6,8.9-16.1c-0.6,7.6-0.9,11.4-1.4,19
											C374,877.5,372.7,879.3,369.9,882.9z"/>
										<g transform="rotate(90 300,167.5)">
											<path id="s_82_" d="M369.9,882.9c3.1-1.9,4.7-2.9,7.8-4.9c3,4.2,4.5,6.3,7.7,10.5c-4.6,1.5-6.9,2.2-11.6,3.6
												C372.1,888.4,371.4,886.6,369.9,882.9z"/>
										</g>
										<path d="M369.9,882.9c-1.7,28.2-2.6,56.3-2.9,84.5c-5.1-6.4-7.5-9.6-12.4-16.1c-3.3,5-5,7.5-8.4,12.4
											c-0.1-6.3-0.2-9.4-0.2-15.7c-7.3,1.8-11,2.7-18.5,4.2C342.3,929.5,356.4,906.5,369.9,882.9z"/>
									</g>
									<g>
										<g id="ermine_27_">
											<g transform="rotate(-90 300,167.5)">
												<path id="s_81_" d="M434.6,902.6c-2.8,2.4-4.3,3.6-7.2,5.9c-3.4-3.9-5.1-5.8-8.4-9.7c4.5-1.9,6.7-2.8,11.1-4.8
													C431.8,897.4,432.7,899.1,434.6,902.6z"/>
											</g>
											<path id="s_80_" d="M434.6,902.6c-0.8-4.7-1.2-7.1-2-11.8c2.8-6.9,4.2-10.4,6.9-17.3c0.2,7.6,0.4,11.4,0.7,19.1
												C438,896.5,436.9,898.6,434.6,902.6z"/>
											<g transform="rotate(90 300,167.5)">
												<path id="s_79_" d="M434.6,902.6c2.8-2.4,4.2-3.6,7-6c3.4,3.7,5.1,5.6,8.6,9.3c-4.3,2.2-6.5,3.3-10.9,5.3
													C437.3,907.7,436.4,906,434.6,902.6z"/>
											</g>
											<path d="M434.6,902.6c1.4,28.1,3.5,56.2,6.4,84.2c-5.6-5.6-8.4-8.4-13.8-14.1c-2.7,5.5-4.1,8.2-6.9,13.6
												c-0.8-6.2-1.2-9.3-1.9-15.6c-6.9,2.9-10.4,4.3-17.5,7C412.8,953,424,927.9,434.6,902.6z"/>
										</g>
										<g>
											<g id="ermine_26_">
												<g transform="rotate(-90 300,167.5)">
													<path id="s_78_" d="M230.4,922.4c-3.9,0.9-5.9,1.3-9.9,2.2c-3.1-5.4-4.6-8.1-7.6-13.6c5.7,0.4,8.6,0.6,14.2,0.8
														C228.5,916,229.1,918.1,230.4,922.4z"/>
												</g>
												<path id="s_77_" d="M230.4,922.4c0.2-5,0.3-7.4,0.6-12.4c5-5.3,7.5-8,12.5-13.3c-1.6,7.5-2.4,11.2-3.9,18.8
													C236,918.2,234.1,919.6,230.4,922.4z"/>
												<g transform="rotate(90 300,167.5)">
													<path id="s_76_" d="M230.4,922.4c3.9-0.9,5.9-1.4,9.8-2.4c3.1,5.3,4.6,7.9,7.8,13.1c-5.6,0-8.5,0-14.2-0.2
														C232.4,928.7,231.7,926.6,230.4,922.4z"/>
												</g>
												<path d="M230.4,922.4c-5.3,27.9-9.9,56-13.8,84.1c-5.1-8-7.6-12-12.4-20.1c-4.5,4-6.8,5.9-11.4,9.8
													c0.6-6.4,1-9.6,1.7-15.9c-8.7-0.5-13.2-0.8-22.1-1.7C192.4,960.5,211.7,941.8,230.4,922.4z"/>
											</g>
											<g>
												<g id="ermine_25_">
													<g transform="rotate(-90 300,167.5)">
														<path id="s_75_" d="M304.3,962.8c-3.7,1.5-5.5,2.2-9.3,3.7c-3.5-4.9-5.2-7.4-8.6-12.3c5.5-0.5,8.3-0.7,13.7-1.3
															C301.8,956.8,302.6,958.8,304.3,962.8z"/>
													</g>
													<path id="s_74_" d="M304.3,962.8c-0.3-4.9-0.4-7.4-0.7-12.4c4.3-6,6.4-9,10.6-15.1c-0.8,7.7-1.1,11.5-1.8,19.2
														C309.2,957.8,307.6,959.5,304.3,962.8z"/>
													<g transform="rotate(90 300,167.5)">
														<path id="s_73_" d="M304.3,962.8c3.7-1.5,5.5-2.3,9.1-3.8c3.5,4.7,5.2,7.1,8.8,11.8c-5.4,0.9-8.1,1.3-13.6,2
															C306.9,968.7,306,966.7,304.3,962.8z"/>
													</g>
													<path d="M304.3,962.8c-2.2,28.5-3.7,56.9-4.6,85.4c-5.7-7.1-8.5-10.7-14-18c-3.9,4.6-5.9,6.9-9.9,11.5
														c0-6.4,0-9.6,0-16c-8.4,0.8-12.7,1.2-21.3,1.7C271.8,1006.2,288.3,984.8,304.3,962.8z"/>
												</g>
												<g>
													<g id="ermine_24_">
														<g transform="rotate(-90 300,167.5)">
															<path id="s_72_" d="M379.6,991.6c-3.4,2-5.1,3-8.6,5c-3.9-4.3-5.8-6.5-9.6-10.9c5.3-1.3,7.9-2,13.1-3.4
																C376.5,986,377.5,987.9,379.6,991.6z"/>
														</g>
														<path id="s_71_" d="M379.6,991.6c-0.8-4.9-1.2-7.3-2-12.1c3.5-6.6,5.2-9.9,8.6-16.5c0.1,7.7,0.2,11.6,0.3,19.3
															C383.8,986,382.4,987.8,379.6,991.6z"/>
														<g transform="rotate(90 300,167.5)">
															<path id="s_70_" d="M379.6,991.6c3.4-2,5.1-3.1,8.4-5.2c3.9,4.2,5.8,6.3,9.8,10.4c-5.1,1.7-7.7,2.5-13,4
																C382.7,997.1,381.7,995.3,379.6,991.6z"/>
														</g>
														<path d="M379.6,991.6c0.9,28.5,2.5,57,4.7,85.4c-6.3-6.2-9.4-9.4-15.5-15.8c-3.3,5.2-5,7.7-8.3,12.8
															c-0.7-6.4-1.1-9.5-1.7-15.9c-8,2.1-12.1,3.1-20.3,4.9C352.9,1039.6,366.6,1015.8,379.6,991.6z"/>
													</g>
													<g>
														<g id="ermine_23_">
															<g transform="rotate(-90 300,167.5)">
																<path id="s_69_" d="M455.8,1008.9c-3.1,2.5-4.6,3.8-7.8,6.3c-4.3-3.7-6.4-5.6-10.6-9.4c5-2.1,7.5-3.1,12.4-5.3
																	C452.2,1003.8,453.4,1005.5,455.8,1008.9z"/>
															</g>
															<path id="s_68_" d="M455.8,1008.9c-1.3-4.7-2-7-3.3-11.7c2.7-7.1,4-10.6,6.6-17.7c0.9,7.6,1.4,11.4,2.4,19.1
																C459.3,1002.7,458.2,1004.8,455.8,1008.9z"/>
															<g transform="rotate(90 300,167.5)">
																<path id="s_67_" d="M455.8,1008.9c3.1-2.5,4.6-3.8,7.6-6.4c4.2,3.6,6.4,5.3,10.7,8.8c-4.9,2.4-7.3,3.6-12.3,5.9
																	C459.5,1013.9,458.3,1012.3,455.8,1008.9z"/>
															</g>
															<path d="M455.8,1008.9c4,28.1,8.6,56.1,14,84c-6.8-5.2-10.2-7.9-16.8-13.3c-2.7,5.6-4,8.4-6.7,14
																c-1.4-6.2-2.1-9.3-3.4-15.5c-7.6,3.3-11.5,4.9-19.3,7.9C435,1060.5,445.8,1034.9,455.8,1008.9z"/>
														</g>
													</g>
												</g>
											</g>
										</g>
									</g>
								</g>
							</g>
						</g>
					</g>
				</g>
			</g>
		</g>
		<use xlink:href="#SVGID_3_"  style="overflow:visible;fill:none;stroke:#020202;stroke-width:4;"/>
	</g>
	<g class="st9">
		<path class="st10" d="M619,1333.2c11.4,0,23.6,0.8,32.1,6.5c8.6,5.7,13.5,18.5,16.3,25.7c2.9,7.1,0,11.4-5.7,14.3
			c-4.9,2.9-5.7,1.4-10.6-7.8c-4.9-9.2-9.3-18.5-34.2-18.5s-32.8,8.6-44.9,18.5c-12.1,10-16.3,13.5-20.7,7.8
			c-4.4-5.7-2.9-11.4,4.9-18.5c7.8-7.1,20.7-18.5,32.8-23.6C601.2,1332.4,607.6,1333.2,619,1333.2L619,1333.2z"/>
		<path class="st10" d="M500.8,1414.5c14.3,11.4,35.6,20.7,81.3,20.7c45.6,0,77.6-12.9,91.9-23.6c6.5-4.9,9.3-0.8,10,2.1
			c0.7,2.9,2.1,7.1-2.9,12.2c-3.6,3.6-36.3,26.4-74.9,29.9c-38.6,3.5-90.5,5.7-121.8-22.8c-4.9-4.9-3.6-12.2,0-15
			c3.6-2.9,6.5-4.9,10.6-4.9S498.6,1413,500.8,1414.5L500.8,1414.5z"/>
		<path class="st10" d="M332.6,1284.7c0.8-55.6,52.7-107.6,118.3-108.3c83.4-0.8,141.1,82.7,183.2,81.9
			c35.6-0.8,104.1-70.5,137.6-70.5c35.6,0,45.6,37.1,45.6,59.1c0,22-7.1,62-24.2,87c-17.1,25-27.8,34.2-47.7,32.8
			c-25.7-2.1-77-81.9-109.8-83.4c-41.3-1.4-131.1,86.3-201.7,86.3c-42.8,0-55.6-6.5-69.9-15.7
			C342.5,1338.9,331.8,1316.1,332.6,1284.7L332.6,1284.7z"/>
	</g>
</g>
<g id="Calque_4">
	
		<image style="overflow:visible;" width="300" height="300" xlink:href="autocollant-bretagne-chapeau-breton-logo-2-1-taill.png"  transform="matrix(-7.4735 -0.1431 -0.1431 7.4735 2779.1143 -1140.6584)">
	</image>
</g>
<g id="Calque_5">
</g>
<g id="Calque_6">
	<g>
		<path id="path4856_1_" class="st11" d="M1640.3,773.6l-9.3,8.8l-24.9,5.8l-4.8,8.4l-19-11.4l-21.5,18l10.1,11.1l-13.2,22.6
			l-0.7-0.3l-3.3,30.3l13.7-0.5l0.4,11.9l10.7,5.3l-8.2,10.1l-5.9,5.3l2,10.7l14.3,3.2l-12.5,5.1l1.4,13.6l9.4,10.1l5.1,31.8l-4.9,6
			l6.3,15.9l17.8,2.8l2.7,8.8l11-0.3l8.5-7.3l6,4.9l22,7l16.3-11l3.5-9.5l14.5-2.6l18,12.9l15.1-5.3l15,12.4l6.4-0.7l7.2,7.5
			l12.9-1.3l3.7-6.8l6.7,11.3l14.3,4l16.2-12.8l-1.2-11.8l12.2-5.9l8.1-0.8l12,17.3l22.1-0.5l9.5-14.9l9.2-26.7l15-7.1l6.9-12.7
			l9.1,7.3l16.9-5.3l0.2-50.7l3.4-20.7l-6.6-10.4l-9.6-2.6L1901,831l-6.2,8.7l-21.3-0.1l-0.8,12.4l-13.1,2.4l-2.7-15.2l-11.5-2.2
			l-6.8,9.6l-2.3-22.1l-12.2,11.3l-20.1-1.3l-5.3,13.9l-38.5,26.3l1.2,11.1l-8.8,0.9l-2.1-20l-24.3-8.5l0-20.2l-22.4-13.2l-2-18.7
			l-15.9-1.7l-0.8-17.8L1673,787l-0.2-12.3l-22.1,2.3l-2.2,11.3L1640.3,773.6L1640.3,773.6z"/>
		<path id="path4862_1_" class="st11" d="M1584.6,992.9l-17.4,10.7l-12.9,1.3l-12.5,12.4l1.7,8l10.3,20.2l6.3,15.9l28.7,1.6
			l14.9,9.5l4.8-7.1l10.3,11.1l-4,6l0.8,16.3l-8.1,0.8l-5.3,10.7l-12.9,1.3l-3,22.3l14.4,18.5l18.1,2.6l5.5-10.6l-1.9,12.3l16.1,5.1
			l22,17.7l7.8,11.5l-0.6,14.5l-0.8,14.7l14.3,8.5l5.9-8.5l-7.6-8.1l-2.1-19.8l13.6,1.8l3-13.7l4.2,7.4l15.6,10.7l5.5-11.8
			l-8.3-14.7l13.9,15.3l15.1-3.9l-4-7.4l14.7,1.9l12.3,12.1l-4.6,9.4l-14.8-2.9l-17.4-6l-7.7,12l13.7,3l11.5,14.3l59.1-11.7
			l15.7,1.7l-6.9,7.3l2.1,10l2.3,1.4l4.7-1.4l8.9-10.9l7.3,6.9l17.7-1.8l19.9-13.1l29.6-15.4l-2.2-31l6.2-4.2l-13.9-20.7l9.2-9.2
			l-2.3-5.3l-6.7-3l9.4-5.6l8-11.9l-2-10.9l-11.8,1.2l-4-10.5l7.2-11.8l-10.9-15.5l-14.5-6.9l-15.5,1.6l-5.7-1.2l-0.8-7.2l7.3-8.3
			l2.7-18.7l-3.9-11.6l-3.2,5l-22.1,0.5l-12-17.3l-8.1,0.8l-12.2,5.9l1.2,11.8l-16.2,12.8l-14.3-4l-6.7-11.3l-3.7,6.8l-12.9,1.3
			l-7.2-7.5l-6.4,0.7l-15-12.4l-15.1,5.3l-18-12.9l-14.5,2.6l-3.5,9.5l-16.3,11l-22-7l-6-4.9l-8.5,7.3l-11,0.3l-2.7-8.8l-17.8-2.8
			L1584.6,992.9L1584.6,992.9z"/>
		<path id="path4864_1_" class="st11" d="M1479.2,823.8l-10.6,14.5l-13.8-4.1l-24.1,4.8l-3.3,11.4l-14,4.8l-3.6-11.9l-24.9,6
			l0.8,7.8l-17.5,2.9l-8.3-4.7l-8.4,5.3l-0.9,13.5l-29.6,4.2l-13.6,20.3l14.3,8.5l-16.1,16.3l6.5,9.3l-1.9,24.6l17.9,0.4l6-7.4
			l3.8,4.1l41.3-9.8l25.5-22.7l-21.8,25.7l3.3,10.7l21-12.2l-2.8,16l24.5-1.5l-0.4,6.6l-26.6,1.7l-21.6-3.3l-26.7-9.5l-13.5,19.3
			l20.5,4.6l2,29.8l5-5l10.2-20l24.5,10.8l11.4,1.1l6.3,17.2l-5.5,12.7l-14.4,0.4l-13.2,1.4l-21.7,5.7l-37.4,6.1l-6.5,10.9l11.6,5.4
			l12.1-2.3l10.8,7.8l14.2-2.6l26.1,24l8.5,28l-6.1,16.3l23.6,2l25.3-3.9l4.4-10.5l-11.3-12.2l10.3,3.4l10-2.1l18.7,8l10.7-3.3
			l-2-18.9l6.4,18.4l16.7,21.6l31.1-1.1l0.6-6.7l8.7,10.2l19.2,1.4l14.3-1.5l1,1.1l3-22.3l12.9-1.3l5.3-10.7l8.1-0.8l-0.8-16.3l4-6
			l-10.3-11.1l-4.8,7.1l-14.9-9.5l-28.7-1.6l-6.3-15.9l-10.3-20.2l-1.7-8l12.5-12.4l12.9-1.3l17.4-10.7l-5.3-13.5l4.9-6l-5.1-31.8
			l-9.4-10.1l-1.4-13.6l12.5-5.1l-14.3-3.2l-2-10.7l5.9-5.3l8.2-10.1l-10.7-5.3l-0.4-11.9l-13.7,0.5l3.3-30.3l-19.3-8.7l-30.8,4.3
			l2.3,22.1l-8.8,0.9l-3.2-9.7l-13,3.5L1479.2,823.8L1479.2,823.8z"/>
		<path id="path4866_1_" class="st11" d="M1910.4,817.8L1901,831l9.7,32.7l9.6,2.6l6.6,10.4l-3.4,20.7l-0.2,50.7l-16.9,5.3l-9.1-7.3
			l-6.9,12.7l-15,7.1l-9.2,26.7l-6.3,9.9l3.9,11.6l-2.7,18.7l-7.3,8.3l0.8,7.2l5.7,1.2l15.5-1.6l14.5,6.9l10.9,15.5l-7.2,11.8
			l4,10.5l11.8-1.2l2,10.9l-8,11.9l-9.4,5.6l6.7,3l2.3,5.3l-9.2,9.2l13.9,20.7l21-14.2l68-10.5l3.1-12.6l10-12.1l23.8-5.9l-0.2-12.3
			l16.8,0.6l11.3,12.2l22.8,3.1l3.3-9.3l3.6-20.5l10.6-36.8l7.3-5.2l19,0.3l-3.1-29.8l-8.6-7l-3.3-32l-4.5-10.6l-1.8-17.7l10-12.3
			l-2.3-22.1l-5.9-3.8l-2.2-31l-9.3-3.5l-13.2,1.4l-12-7.7l-10.5,15.6l-9.8,2.3l-7.6,12.9l-9-1.2l-20.6-14.6l-8.7-20.3l-4.8-13.6
			l-54.2,5.7l-21.2-10.1l11.4-19L1910.4,817.8L1910.4,817.8z"/>
		<path id="path4868_1_" class="st11" d="M2033.8,1090.2l0.2,12.3l-23.8,5.9l-10,12.1l-3.1,12.6l-68,10.5l-27.2,18.4l2.2,31
			l-29.6,15.4l-19.9,13.1l-17.7,1.8l-7.3-6.9l-8.9,10.9l-4.7,1.4l6.1,3.3l-19.1,20.9l4.9,4l5.3,8.4l-9.5,16.7l12.9,5.3l21.5,2.2
			l1.2-9l13.8,14.3l20-2.1l12.7-17l18.7-2l-18.7,12l2.2,11l5.4,9.4l-10.9,13.5l-13.2,1.4l4,16.4l23.7-6.9l31.5,23.5l-1.2,1.9
			l22.3,11.4l5.7,10.5l19.9,6.3l14.8,0.2l8.2,16.6l23.3,3.1l15.7,1.2l7.3-10l-9.5-11l-6.2-25.2l6.4-8.9l10.1-1.1l5.6,9.6l-0.9,18.5
			l6.8,3.9l15.8-7.2l3.6-18.8l-8-6.7l18.2-1.9l5.1-12.5l6.4,0.2l16.1,12.2l10.7,0.3l-0.8-11.5l-10.4-10.9l-8.1,0.8l-2.7,1.2
			l-5.8-2.1l4.1-5.1l-0.9-8.3l8.9-3.6l4.1-13.3l-5.1-4.1l-2.5-15.4l-11.8,1.2l-13.4-13.4l-1.1-10.8l12-7.9l22.3-6.8l35.6-2.8
			l10.2-8.6l-6.1-22.4l-18-13.6l-19.7,4.7l-6-4l-2.6-16.2l13.1-14.4l-12.4-12.5l-9.3-18.5l-12.6-6l-1.3-12.7l-1.7-3.9l-21.2-3
			l-11.3-12.2L2033.8,1090.2L2033.8,1090.2z"/>
		<path id="path3672_1_" sodipodi:nodetypes="cccccccccccccccccccc" class="st6" d="M1555.1,837.7l3.5,1.4l200,58.6l131.6-35.5
			l10-25.7l5.5-7l30.1,33.2l143,232.2l4.1,8.6l-0.4,8.9l-251.7,130.8l-5.9-13.7l-3.2-0.1l-5.8-3.1l7.5-19.4l-166.2-92.5l-65.6,21.1
			l-8.8-6.7l-111.7-203.2L1555.1,837.7z"/>
	</g>
	<g>
		<path class="st1" d="M1889.3,1091c11.4,0,23.6,0.8,32.1,6.5c8.6,5.7,13.5,18.5,16.3,25.7c2.9,7.1,0,11.4-5.7,14.3
			c-4.9,2.9-5.7,1.4-10.6-7.8c-4.9-9.2-9.3-18.5-34.2-18.5s-32.8,8.6-44.9,18.5c-12.1,10-16.3,13.5-20.7,7.8
			c-4.4-5.7-2.9-11.4,4.9-18.5c7.8-7.1,20.7-18.5,32.8-23.6C1871.5,1090.2,1877.9,1091,1889.3,1091L1889.3,1091z"/>
		<path class="st1" d="M1771.1,1172.3c14.3,11.4,35.6,20.7,81.3,20.7c45.6,0,77.6-12.9,91.9-23.6c6.5-4.9,9.3-0.8,10,2.1
			c0.7,2.9,2.1,7.1-2.9,12.2c-3.6,3.6-36.3,26.4-74.9,29.9c-38.6,3.5-90.5,5.7-121.8-22.8c-4.9-4.9-3.6-12.2,0-15s6.5-4.9,10.6-4.9
			S1768.9,1170.8,1771.1,1172.3L1771.1,1172.3z"/>
		<path class="st1" d="M1602.9,1042.5c0.8-55.6,52.7-107.6,118.3-108.3c83.4-0.8,141.1,82.7,183.2,81.9
			c35.6-0.8,104.1-70.5,137.6-70.5c35.6,0,45.6,37.1,45.6,59.1s-7.1,62-24.2,87s-27.8,34.2-47.7,32.8c-25.7-2.1-77-81.9-109.8-83.4
			c-41.3-1.4-131.1,86.3-201.7,86.3c-42.8,0-55.6-6.5-69.9-15.7C1612.8,1096.7,1602.1,1073.9,1602.9,1042.5L1602.9,1042.5z"/>
	</g>
</g>
<g id="Calque_2" class="st12">
	
		<image style="overflow:visible;" width="225" height="182" xlink:href="g3472.png"  transform="matrix(-3.8368 0.4173 0.4173 3.8368 822.0446 -437.1975)">
	</image>
</g>
<g id="Calque_3">
	<path class="st13" d="M897.6-84.9c10.5,66.6-161,134.1-383.1,150.8S104.1,42.1,93.6-24.5s161-134.1,383.1-150.8
		S887.1-151.5,897.6-84.9z"/>
	<path class="st13" d="M722-101.7c7.8,40.5-80.4,82-197,92.8S307.4-22.2,299.6-62.6c-7.8-40.5,80.4-82,197-92.8
		C613.3-166.2,714.2-142.1,722-101.7z"/>
	<polygon class="st14" points="718.7,-82 299.2,-65 282.5,-222.3 702,-239.4 	"/>
	<path class="st13" d="M702.5-260c7.8,39.9-80.7,81.1-197.7,92.1c-117,11-218.2-12.5-225.9-52.4c-7.8-39.9,80.7-81.1,197.7-92.1
		C593.6-323.4,694.7-299.9,702.5-260z"/>
	<path class="st13" d="M320-95.7c0,0,39.3,20.6,91.8,23l9.6,57.1c0,0-73.3-5.2-94.5-25L320-95.7z"/>
	<path class="st13" d="M409.3-12.5l-58.4-13.1c0,0-60.7,37.6-68.2,63s-22.6,83.6-35.3,101c-12.8,17.4-40.3,72.9-40.3,72.9L320,232.7
		c0,0,9.2,5.5,37-45.2c16.3-57.1,2.6-120,2.6-120L409.3-12.5z"/>
	<path class="st13" d="M266.2-41.4C223.4,8.1,105.2,106.7,59.9,128.9s-38.4,10.3-38.4,10.3l98.5,57.4
		c101.4-15.8,110.6-77.3,119.2-114.5c8.6-37.2,94.5-103.4,94.5-103.4l-39.9-34.5C284.2-50.3,266.2-41.4,266.2-41.4z"/>
</g>
</svg>
